<svg width="12" height="13" viewBox="0 0 12 13" fill="none" xmlns="http://www.w3.org/2000/svg">
<path d="M1.48367 3.95886C2.30301 3.95886 2.96722 3.29465 2.96722 2.47531C2.96722 1.65597 2.30301 0.99176 1.48367 0.99176C0.66433 0.99176 0.00012207 1.65597 0.00012207 2.47531C0.00012207 3.29465 0.66433 3.95886 1.48367 3.95886Z" fill="#292929"/>
<path d="M2.71984 4.94986H0.247258C0.110772 4.94986 0 5.06063 0 5.19712V12.6149C0 12.7514 0.110772 12.8621 0.247258 12.8621H2.71984C2.85633 12.8621 2.9671 12.7514 2.9671 12.6149V5.19712C2.9671 5.06063 2.85633 4.94986 2.71984 4.94986Z" fill="#292929"/>
<path d="M10.0882 4.5385C9.03138 4.17651 7.70954 4.49449 6.91683 5.06466C6.88963 4.95834 6.79271 4.87922 6.67748 4.87922H4.2049C4.06841 4.87922 3.95764 4.98999 3.95764 5.12648V12.5442C3.95764 12.6807 4.06841 12.7915 4.2049 12.7915H6.67748C6.81397 12.7915 6.92474 12.6807 6.92474 12.5442V7.21334C7.32431 6.86915 7.8391 6.75937 8.26043 6.93839C8.6689 7.11097 8.90281 7.5323 8.90281 8.09358V12.5442C8.90281 12.6807 9.01358 12.7915 9.15007 12.7915H11.6227C11.7591 12.7915 11.8699 12.6807 11.8699 12.5442V7.5956C11.8417 5.56363 10.8858 4.81147 10.0882 4.5385Z" fill="#292929"/>
</svg>
